+ filenameToUse=/home/horvathandras/vatic/vatic/public/videouploads/DJI_0055_30m_vadvalto_buzaban_homokmegy_20180603_napos_kalaszos_T4.avi
+ filenameNoDot=DJI_0055_30m_vadvalto_buzaban_homokmegy_20180603_napos_kalaszos_T4
+ FullUploadPath=/home/horvathandras/vatic/vatic/public/videouploads/DJI_0055_30m_vadvalto_buzaban_homokmegy_20180603_napos_kalaszos_T4.avi
+ VideoDataDir=/home/horvathandras/vatic/vatic/videos
+ AvailableObjectTypes='PozitívROI NegatívROI Túrás ~Friss ~1-2Hetes ~Régebbi ~Egyéb1 ~Egyéb2 ~Egyéb3 Rágás ~Friss ~1-2Hetes ~Régebbi ~Egyéb1 ~Egyéb2 ~Egyéb3 Törés ~Friss ~1-2Hetes ~Régebbi ~Egyéb1 ~Egyéb2 ~Egyéb3 Taposás ~Friss ~1-2Hetes ~Régebbi ~Egyéb1 ~Egyéb2 ~Egyéb3 EgészségesNövény Egyéb1 Egyéb2 Egyéb3 Egyéb4 Egyéb5 Bizonytalan Művelőút Gktaposás Vetőhiba Széldöntés Jégkár Belvíz Aszály Erózió EgyszikűGyom KétszikűGyom EgyébNövvédelmiPR'
++ dirname /home/horvathandras/vatic/vatic/vatic_publisher.sh
+ cd /home/horvathandras/vatic/vatic
+ touch /home/horvathandras/vatic/vatic/public/videouploads/DJI_0055_30m_vadvalto_buzaban_homokmegy_20180603_napos_kalaszos_T4.avi
+ chmod 744 /home/horvathandras/vatic/vatic/public/videouploads/DJI_0055_30m_vadvalto_buzaban_homokmegy_20180603_napos_kalaszos_T4.avi
+ mkdir /home/horvathandras/vatic/vatic/videos/DJI_0055_30m_vadvalto_buzaban_homokmegy_20180603_napos_kalaszos_T4
+ turkic extract /home/horvathandras/vatic/vatic/public/videouploads/DJI_0055_30m_vadvalto_buzaban_homokmegy_20180603_napos_kalaszos_T4.avi /home/horvathandras/vatic/vatic/videos/DJI_0055_30m_vadvalto_buzaban_homokmegy_20180603_napos_kalaszos_T4 --no-resize
ffmpeg version 2.8.14-0ubuntu0.16.04.1 Copyright (c) 2000-2018 the FFmpeg developers
  built with gcc 5.4.0 (Ubuntu 5.4.0-6ubuntu1~16.04.9) 20160609
  configuration: --prefix=/usr --extra-version=0ubuntu0.16.04.1 --build-suffix=-ffmpeg --toolchain=hardened --libdir=/usr/lib/x86_64-linux-gnu --incdir=/usr/include/x86_64-linux-gnu --cc=cc --cxx=g++ --enable-gpl --enable-shared --disable-stripping --disable-decoder=libopenjpeg --disable-decoder=libschroedinger --enable-avresample --enable-avisynth --enable-gnutls --enable-ladspa --enable-libass --enable-libbluray --enable-libbs2b --enable-libcaca --enable-libcdio --enable-libflite --enable-libfontconfig --enable-libfreetype --enable-libfribidi --enable-libgme --enable-libgsm --enable-libmodplug --enable-libmp3lame --enable-libopenjpeg --enable-libopus --enable-libpulse --enable-librtmp --enable-libschroedinger --enable-libshine --enable-libsnappy --enable-libsoxr --enable-libspeex --enable-libssh --enable-libtheora --enable-libtwolame --enable-libvorbis --enable-libvpx --enable-libwavpack --enable-libwebp --enable-libx265 --enable-libxvid --enable-libzvbi --enable-openal --enable-opengl --enable-x11grab --enable-libdc1394 --enable-libiec61883 --enable-libzmq --enable-frei0r --enable-libx264 --enable-libopencv
  libavutil      54. 31.100 / 54. 31.100
  libavcodec     56. 60.100 / 56. 60.100
  libavformat    56. 40.101 / 56. 40.101
  libavdevice    56.  4.100 / 56.  4.100
  libavfilter     5. 40.101 /  5. 40.101
  libavresample   2.  1.  0 /  2.  1.  0
  libswscale      3.  1.101 /  3.  1.101
  libswresample   1.  2.101 /  1.  2.101
  libpostproc    53.  3.100 / 53.  3.100
Input #0, mov,mp4,m4a,3gp,3g2,mj2, from '/home/horvathandras/vatic/vatic/public/videouploads/DJI_0055_30m_vadvalto_buzaban_homokmegy_20180603_napos_kalaszos_T4.avi':
  Metadata:
    major_brand     : qt  
    minor_version   : 537986816
    compatible_brands: qt  
    creation_time   : 2018-06-03 08:41:00
    location        : +46.517589+19.147009+30.000
    location-{    : +46.517589+19.147009+30.000
    comment         : DE=None, Mode=P, DSW=0001
  Duration: 00:00:25.16, start: 0.000000, bitrate: 100760 kb/s
    Stream #0:0(eng): Video: h264 (High) (avc1 / 0x31637661), yuv420p(tv, bt709), 4096x2160 [SAR 1:1 DAR 256:135], 100591 kb/s, 50 fps, 50 tbr, 50k tbn, 100 tbc (default)
    Metadata:
      creation_time   : 2018-06-03 08:41:00
      handler_name    : DJI.AVC
      encoder         : AVC encoder
    Stream #0:1(eng): Data: none (priv / 0x76697270), 159 kb/s
    Metadata:
      creation_time   : 2018-06-03 08:41:00
      handler_name    : DJI.Meta
Please use -b:a or -b:v, -b is ambiguous
[swscaler @ 0x2188240] deprecated pixel format used, make sure you did set range correctly
Output #0, image2, to '/tmp/pyvision-ffmpeg-45731344/%d.jpg':
  Metadata:
    major_brand     : qt  
    minor_version   : 537986816
    compatible_brands: qt  
    comment         : DE=None, Mode=P, DSW=0001
    location        : +46.517589+19.147009+30.000
    location-{    : +46.517589+19.147009+30.000
    encoder         : Lavf56.40.101
    Stream #0:0(eng): Video: mjpeg, yuvj420p(pc), 4096x2160 [SAR 1:1 DAR 256:135], q=2-31, 10000 kb/s, 50 fps, 50 tbn, 50 tbc (default)
    Metadata:
      creation_time   : 2018-06-03 08:41:00
      handler_name    : DJI.AVC
      encoder         : Lavc56.60.100 mjpeg
Stream mapping:
  Stream #0:0 -> #0:0 (h264 (native) -> mjpeg (native))
Press [q] to stop, [?] for help
frame=    1 fps=0.9 q=19.1 size=N/A time=00:00:00.02 bitrate=N/A    frame=    4 fps=2.3 q=24.8 size=N/A time=00:00:00.08 bitrate=N/A    frame=    8 fps=3.4 q=24.8 size=N/A time=00:00:00.16 bitrate=N/A    frame=   11 fps=3.7 q=24.8 size=N/A time=00:00:00.22 bitrate=N/A    frame=   14 fps=4.0 q=24.8 size=N/A time=00:00:00.28 bitrate=N/A    frame=   17 fps=4.1 q=24.8 size=N/A time=00:00:00.34 bitrate=N/A    frame=   21 fps=4.4 q=24.8 size=N/A time=00:00:00.42 bitrate=N/A    frame=   24 fps=4.5 q=24.8 size=N/A time=00:00:00.48 bitrate=N/A    frame=   27 fps=4.5 q=24.8 size=N/A time=00:00:00.54 bitrate=N/A    frame=   29 fps=4.5 q=24.8 size=N/A time=00:00:00.58 bitrate=N/A    frame=   32 fps=4.6 q=24.8 size=N/A time=00:00:00.64 bitrate=N/A    frame=   35 fps=4.6 q=24.8 size=N/A time=00:00:00.70 bitrate=N/A    frame=   38 fps=4.7 q=24.8 size=N/A time=00:00:00.76 bitrate=N/A    frame=   41 fps=4.7 q=24.8 size=N/A time=00:00:00.82 bitrate=N/A    frame=   44 fps=4.7 q=24.8 size=N/A time=00:00:00.88 bitrate=N/A    frame=   47 fps=4.7 q=24.8 size=N/A time=00:00:00.94 bitrate=N/A    frame=   50 fps=4.7 q=24.8 size=N/A time=00:00:01.00 bitrate=N/A    frame=   53 fps=4.8 q=24.8 size=N/A time=00:00:01.06 bitrate=N/A    frame=   57 fps=4.9 q=24.8 size=N/A time=00:00:01.14 bitrate=N/A    frame=   60 fps=4.8 q=24.8 size=N/A time=00:00:01.20 bitrate=N/A    frame=   63 fps=4.8 q=24.8 size=N/A time=00:00:01.26 bitrate=N/A    frame=   67 fps=4.9 q=24.8 size=N/A time=00:00:01.34 bitrate=N/A    frame=   70 fps=4.9 q=24.8 size=N/A time=00:00:01.40 bitrate=N/A    frame=   73 fps=4.9 q=24.8 size=N/A time=00:00:01.46 bitrate=N/A    frame=   77 fps=5.0 q=24.8 size=N/A time=00:00:01.54 bitrate=N/A    frame=   80 fps=5.0 q=24.8 size=N/A time=00:00:01.60 bitrate=N/A    frame=   83 fps=5.0 q=24.8 size=N/A time=00:00:01.66 bitrate=N/A    frame=   85 fps=5.0 q=24.8 size=N/A time=00:00:01.70 bitrate=N/A    frame=   88 fps=4.9 q=24.8 size=N/A time=00:00:01.76 bitrate=N/A    frame=   91 fps=4.9 q=24.8 size=N/A time=00:00:01.82 bitrate=N/A    frame=   94 fps=5.0 q=24.8 size=N/A time=00:00:01.88 bitrate=N/A    frame=   98 fps=5.0 q=24.8 size=N/A time=00:00:01.96 bitrate=N/A    frame=  101 fps=5.0 q=24.8 size=N/A time=00:00:02.02 bitrate=N/A    frame=  105 fps=5.1 q=24.8 size=N/A time=00:00:02.10 bitrate=N/A    frame=  108 fps=5.1 q=24.8 size=N/A time=00:00:02.16 bitrate=N/A    frame=  112 fps=5.1 q=24.8 size=N/A time=00:00:02.24 bitrate=N/A    frame=  116 fps=5.1 q=24.8 size=N/A time=00:00:02.32 bitrate=N/A    frame=  119 fps=5.1 q=24.8 size=N/A time=00:00:02.38 bitrate=N/A    frame=  122 fps=5.1 q=24.8 size=N/A time=00:00:02.44 bitrate=N/A    frame=  125 fps=5.1 q=24.8 size=N/A time=00:00:02.50 bitrate=N/A    frame=  129 fps=5.2 q=24.8 size=N/A time=00:00:02.58 bitrate=N/A    frame=  133 fps=5.2 q=24.8 size=N/A time=00:00:02.66 bitrate=N/A    frame=  136 fps=5.2 q=24.8 size=N/A time=00:00:02.72 bitrate=N/A    frame=  140 fps=5.3 q=24.8 size=N/A time=00:00:02.80 bitrate=N/A    frame=  144 fps=5.3 q=24.8 size=N/A time=00:00:02.88 bitrate=N/A    frame=  148 fps=5.3 q=24.8 size=N/A time=00:00:02.96 bitrate=N/A    frame=  151 fps=5.3 q=24.8 size=N/A time=00:00:03.02 bitrate=N/A    frame=  154 fps=5.3 q=24.8 size=N/A time=00:00:03.08 bitrate=N/A    frame=  157 fps=5.3 q=24.8 size=N/A time=00:00:03.14 bitrate=N/A    frame=  160 fps=5.3 q=24.8 size=N/A time=00:00:03.20 bitrate=N/A    frame=  163 fps=5.3 q=24.8 size=N/A time=00:00:03.26 bitrate=N/A    frame=  166 fps=5.3 q=24.8 size=N/A time=00:00:03.32 bitrate=N/A    frame=  169 fps=5.3 q=24.8 size=N/A time=00:00:03.38 bitrate=N/A    frame=  171 fps=5.3 q=24.8 size=N/A time=00:00:03.42 bitrate=N/A    frame=  174 fps=5.3 q=24.8 size=N/A time=00:00:03.48 bitrate=N/A    frame=  178 fps=5.3 q=24.8 size=N/A time=00:00:03.56 bitrate=N/A    frame=  181 fps=5.3 q=24.8 size=N/A time=00:00:03.62 bitrate=N/A    frame=  184 fps=5.3 q=24.8 size=N/A time=00:00:03.68 bitrate=N/A    frame=  188 fps=5.3 q=24.8 size=N/A time=00:00:03.76 bitrate=N/A    frame=  191 fps=5.3 q=24.8 size=N/A time=00:00:03.82 bitrate=N/A    frame=  194 fps=5.3 q=24.8 size=N/A time=00:00:03.88 bitrate=N/A    frame=  198 fps=5.3 q=24.8 size=N/A time=00:00:03.96 bitrate=N/A    frame=  202 fps=5.4 q=24.8 size=N/A time=00:00:04.04 bitrate=N/A    frame=  205 fps=5.3 q=24.8 size=N/A time=00:00:04.10 bitrate=N/A    frame=  208 fps=5.3 q=24.8 size=N/A time=00:00:04.16 bitrate=N/A    frame=  211 fps=5.3 q=24.8 size=N/A time=00:00:04.22 bitrate=N/A    frame=  215 fps=5.4 q=24.8 size=N/A time=00:00:04.30 bitrate=N/A    frame=  219 fps=5.4 q=24.8 size=N/A time=00:00:04.38 bitrate=N/A    frame=  223 fps=5.4 q=24.8 size=N/A time=00:00:04.46 bitrate=N/A    frame=  226 fps=5.4 q=24.8 size=N/A time=00:00:04.52 bitrate=N/A    frame=  230 fps=5.4 q=24.8 size=N/A time=00:00:04.60 bitrate=N/A    frame=  233 fps=5.4 q=24.8 size=N/A time=00:00:04.66 bitrate=N/A    frame=  237 fps=5.4 q=24.8 size=N/A time=00:00:04.74 bitrate=N/A    frame=  240 fps=5.4 q=24.8 size=N/A time=00:00:04.80 bitrate=N/A    frame=  242 fps=5.4 q=24.8 size=N/A time=00:00:04.84 bitrate=N/A    frame=  244 fps=5.4 q=24.8 size=N/A time=00:00:04.88 bitrate=N/A    frame=  247 fps=5.4 q=24.8 size=N/A time=00:00:04.94 bitrate=N/A    frame=  251 fps=5.4 q=24.8 size=N/A time=00:00:05.02 bitrate=N/A    frame=  254 fps=5.4 q=24.8 size=N/A time=00:00:05.08 bitrate=N/A    frame=  257 fps=5.4 q=24.8 size=N/A time=00:00:05.14 bitrate=N/A    frame=  261 fps=5.4 q=24.8 size=N/A time=00:00:05.22 bitrate=N/A    frame=  265 fps=5.4 q=24.8 size=N/A time=00:00:05.30 bitrate=N/A    frame=  268 fps=5.4 q=24.8 size=N/A time=00:00:05.36 bitrate=N/A    frame=  272 fps=5.4 q=24.8 size=N/A time=00:00:05.44 bitrate=N/A    frame=  275 fps=5.4 q=24.8 size=N/A time=00:00:05.50 bitrate=N/A    frame=  278 fps=5.4 q=24.8 size=N/A time=00:00:05.56 bitrate=N/A    frame=  280 fps=5.4 q=24.8 size=N/A time=00:00:05.60 bitrate=N/A    frame=  282 fps=5.4 q=24.8 size=N/A time=00:00:05.64 bitrate=N/A    frame=  285 fps=5.4 q=24.8 size=N/A time=00:00:05.70 bitrate=N/A    frame=  289 fps=5.4 q=24.8 size=N/A time=00:00:05.78 bitrate=N/A    frame=  293 fps=5.4 q=24.8 size=N/A time=00:00:05.86 bitrate=N/A    frame=  296 fps=5.4 q=24.8 size=N/A time=00:00:05.92 bitrate=N/A    frame=  299 fps=5.4 q=24.8 size=N/A time=00:00:05.98 bitrate=N/A    frame=  302 fps=5.4 q=24.8 size=N/A time=00:00:06.04 bitrate=N/A    frame=  306 fps=5.4 q=24.8 size=N/A time=00:00:06.12 bitrate=N/A    frame=  310 fps=5.4 q=24.8 size=N/A time=00:00:06.20 bitrate=N/A    frame=  313 fps=5.4 q=24.8 size=N/A time=00:00:06.26 bitrate=N/A    frame=  317 fps=5.4 q=24.8 size=N/A time=00:00:06.34 bitrate=N/A    frame=  321 fps=5.4 q=24.8 size=N/A time=00:00:06.42 bitrate=N/A    frame=  324 fps=5.4 q=24.8 size=N/A time=00:00:06.48 bitrate=N/A    frame=  328 fps=5.4 q=24.8 size=N/A time=00:00:06.56 bitrate=N/A    frame=  331 fps=5.4 q=24.8 size=N/A time=00:00:06.62 bitrate=N/A    frame=  334 fps=5.4 q=24.8 size=N/A time=00:00:06.68 bitrate=N/A    frame=  337 fps=5.4 q=24.8 size=N/A time=00:00:06.74 bitrate=N/A    frame=  340 fps=5.4 q=24.8 size=N/A time=00:00:06.80 bitrate=N/A    frame=  344 fps=5.4 q=24.8 size=N/A time=00:00:06.88 bitrate=N/A    frame=  347 fps=5.4 q=24.8 size=N/A time=00:00:06.94 bitrate=N/A    frame=  351 fps=5.4 q=24.8 size=N/A time=00:00:07.02 bitrate=N/A    frame=  354 fps=5.4 q=24.8 size=N/A time=00:00:07.08 bitrate=N/A    frame=  358 fps=5.4 q=24.8 size=N/A time=00:00:07.16 bitrate=N/A    frame=  361 fps=5.4 q=24.8 size=N/A time=00:00:07.22 bitrate=N/A    frame=  365 fps=5.4 q=24.8 size=N/A time=00:00:07.30 bitrate=N/A    frame=  369 fps=5.4 q=24.8 size=N/A time=00:00:07.38 bitrate=N/A    frame=  372 fps=5.4 q=24.8 size=N/A time=00:00:07.44 bitrate=N/A    frame=  375 fps=5.4 q=24.8 size=N/A time=00:00:07.50 bitrate=N/A    frame=  378 fps=5.4 q=24.8 size=N/A time=00:00:07.56 bitrate=N/A    frame=  381 fps=5.4 q=24.8 size=N/A time=00:00:07.62 bitrate=N/A    frame=  385 fps=5.4 q=24.8 size=N/A time=00:00:07.70 bitrate=N/A    frame=  387 fps=5.4 q=24.8 size=N/A time=00:00:07.74 bitrate=N/A    frame=  390 fps=5.4 q=24.8 size=N/A time=00:00:07.80 bitrate=N/A    frame=  393 fps=5.4 q=24.8 size=N/A time=00:00:07.86 bitrate=N/A    frame=  396 fps=5.4 q=24.8 size=N/A time=00:00:07.92 bitrate=N/A    frame=  400 fps=5.4 q=24.8 size=N/A time=00:00:08.00 bitrate=N/A    frame=  404 fps=5.4 q=24.8 size=N/A time=00:00:08.08 bitrate=N/A    frame=  407 fps=5.4 q=24.8 size=N/A time=00:00:08.14 bitrate=N/A    frame=  410 fps=5.4 q=24.8 size=N/A time=00:00:08.20 bitrate=N/A    frame=  414 fps=5.4 q=24.8 size=N/A time=00:00:08.28 bitrate=N/A    frame=  417 fps=5.4 q=24.8 size=N/A time=00:00:08.34 bitrate=N/A    frame=  420 fps=5.4 q=24.8 size=N/A time=00:00:08.40 bitrate=N/A    frame=  422 fps=5.4 q=24.8 size=N/A time=00:00:08.44 bitrate=N/A    frame=  424 fps=5.4 q=24.8 size=N/A time=00:00:08.48 bitrate=N/A    frame=  427 fps=5.4 q=24.8 size=N/A time=00:00:08.54 bitrate=N/A    frame=  431 fps=5.4 q=24.8 size=N/A time=00:00:08.62 bitrate=N/A    frame=  434 fps=5.4 q=24.8 size=N/A time=00:00:08.68 bitrate=N/A    frame=  437 fps=5.4 q=24.8 size=N/A time=00:00:08.74 bitrate=N/A    frame=  441 fps=5.4 q=24.8 size=N/A time=00:00:08.82 bitrate=N/A    frame=  444 fps=5.4 q=24.8 size=N/A time=00:00:08.88 bitrate=N/A    frame=  447 fps=5.4 q=24.8 size=N/A time=00:00:08.94 bitrate=N/A    frame=  450 fps=5.4 q=24.8 size=N/A time=00:00:09.00 bitrate=N/A    frame=  453 fps=5.4 q=24.8 size=N/A time=00:00:09.06 bitrate=N/A    frame=  457 fps=5.4 q=24.8 size=N/A time=00:00:09.14 bitrate=N/A    frame=  460 fps=5.4 q=24.8 size=N/A time=00:00:09.20 bitrate=N/A    frame=  464 fps=5.4 q=24.8 size=N/A time=00:00:09.28 bitrate=N/A    frame=  467 fps=5.4 q=24.8 size=N/A time=00:00:09.34 bitrate=N/A    frame=  470 fps=5.4 q=24.8 size=N/A time=00:00:09.40 bitrate=N/A    frame=  473 fps=5.4 q=24.8 size=N/A time=00:00:09.46 bitrate=N/A    frame=  475 fps=5.4 q=24.8 size=N/A time=00:00:09.50 bitrate=N/A    frame=  478 fps=5.4 q=24.8 size=N/A time=00:00:09.56 bitrate=N/A    frame=  481 fps=5.4 q=24.8 size=N/A time=00:00:09.62 bitrate=N/A    frame=  485 fps=5.4 q=24.8 size=N/A time=00:00:09.70 bitrate=N/A    frame=  489 fps=5.4 q=24.8 size=N/A time=00:00:09.78 bitrate=N/A    frame=  492 fps=5.4 q=24.8 size=N/A time=00:00:09.84 bitrate=N/A    frame=  495 fps=5.4 q=24.8 size=N/A time=00:00:09.90 bitrate=N/A    frame=  499 fps=5.4 q=24.8 size=N/A time=00:00:09.98 bitrate=N/A    frame=  501 fps=5.4 q=24.8 size=N/A time=00:00:10.02 bitrate=N/A    frame=  505 fps=5.4 q=24.8 size=N/A time=00:00:10.10 bitrate=N/A    frame=  508 fps=5.4 q=24.8 size=N/A time=00:00:10.16 bitrate=N/A    frame=  511 fps=5.4 q=24.8 size=N/A time=00:00:10.22 bitrate=N/A    frame=  514 fps=5.4 q=24.8 size=N/A time=00:00:10.28 bitrate=N/A    frame=  517 fps=5.4 q=24.8 size=N/A time=00:00:10.34 bitrate=N/A    frame=  520 fps=5.4 q=24.8 size=N/A time=00:00:10.40 bitrate=N/A    frame=  523 fps=5.4 q=24.8 size=N/A time=00:00:10.46 bitrate=N/A    frame=  526 fps=5.3 q=24.8 size=N/A time=00:00:10.52 bitrate=N/A    frame=  529 fps=5.3 q=24.8 size=N/A time=00:00:10.58 bitrate=N/A    frame=  533 fps=5.3 q=24.8 size=N/A time=00:00:10.66 bitrate=N/A    frame=  536 fps=5.3 q=24.8 size=N/A time=00:00:10.72 bitrate=N/A    frame=  539 fps=5.3 q=24.8 size=N/A time=00:00:10.78 bitrate=N/A    frame=  542 fps=5.3 q=24.8 size=N/A time=00:00:10.84 bitrate=N/A    frame=  545 fps=5.3 q=24.8 size=N/A time=00:00:10.90 bitrate=N/A    frame=  549 fps=5.3 q=24.8 size=N/A time=00:00:10.98 bitrate=N/A    frame=  552 fps=5.3 q=24.8 size=N/A time=00:00:11.04 bitrate=N/A    frame=  555 fps=5.3 q=24.8 size=N/A time=00:00:11.10 bitrate=N/A    frame=  558 fps=5.3 q=24.8 size=N/A time=00:00:11.16 bitrate=N/A    frame=  562 fps=5.3 q=24.8 size=N/A time=00:00:11.24 bitrate=N/A    frame=  566 fps=5.3 q=24.8 size=N/A time=00:00:11.32 bitrate=N/A    frame=  570 fps=5.3 q=24.8 size=N/A time=00:00:11.40 bitrate=N/A    frame=  573 fps=5.3 q=24.8 size=N/A time=00:00:11.46 bitrate=N/A    frame=  576 fps=5.3 q=24.8 size=N/A time=00:00:11.52 bitrate=N/A    frame=  579 fps=5.3 q=24.8 size=N/A time=00:00:11.58 bitrate=N/A    frame=  583 fps=5.3 q=24.8 size=N/A time=00:00:11.66 bitrate=N/A    frame=  585 fps=5.3 q=24.8 size=N/A time=00:00:11.70 bitrate=N/A    frame=  587 fps=5.3 q=24.8 size=N/A time=00:00:11.74 bitrate=N/A    frame=  590 fps=5.3 q=24.8 size=N/A time=00:00:11.80 bitrate=N/A    frame=  593 fps=5.3 q=24.8 size=N/A time=00:00:11.86 bitrate=N/A    frame=  596 fps=5.3 q=24.8 size=N/A time=00:00:11.92 bitrate=N/A    frame=  599 fps=5.3 q=24.8 size=N/A time=00:00:11.98 bitrate=N/A    frame=  602 fps=5.3 q=24.8 size=N/A time=00:00:12.04 bitrate=N/A    frame=  606 fps=5.3 q=24.8 size=N/A time=00:00:12.12 bitrate=N/A    frame=  609 fps=5.3 q=24.8 size=N/A time=00:00:12.18 bitrate=N/A    frame=  612 fps=5.3 q=24.8 size=N/A time=00:00:12.24 bitrate=N/A    frame=  615 fps=5.3 q=24.8 size=N/A time=00:00:12.30 bitrate=N/A    frame=  618 fps=5.3 q=24.8 size=N/A time=00:00:12.36 bitrate=N/A    frame=  621 fps=5.3 q=24.8 size=N/A time=00:00:12.42 bitrate=N/A    frame=  624 fps=5.3 q=24.8 size=N/A time=00:00:12.48 bitrate=N/A    frame=  627 fps=5.3 q=24.8 size=N/A time=00:00:12.54 bitrate=N/A    frame=  630 fps=5.3 q=24.8 size=N/A time=00:00:12.60 bitrate=N/A    frame=  633 fps=5.3 q=24.8 size=N/A time=00:00:12.66 bitrate=N/A    frame=  636 fps=5.3 q=24.8 size=N/A time=00:00:12.72 bitrate=N/A    frame=  639 fps=5.3 q=24.8 size=N/A time=00:00:12.78 bitrate=N/A    frame=  642 fps=5.3 q=24.8 size=N/A time=00:00:12.84 bitrate=N/A    frame=  645 fps=5.3 q=24.8 size=N/A time=00:00:12.90 bitrate=N/A    frame=  648 fps=5.3 q=24.8 size=N/A time=00:00:12.96 bitrate=N/A    frame=  651 fps=5.3 q=24.8 size=N/A time=00:00:13.02 bitrate=N/A    frame=  654 fps=5.3 q=24.8 size=N/A time=00:00:13.08 bitrate=N/A    frame=  658 fps=5.3 q=24.8 size=N/A time=00:00:13.16 bitrate=N/A    frame=  661 fps=5.3 q=24.8 size=N/A time=00:00:13.22 bitrate=N/A    frame=  664 fps=5.3 q=24.8 size=N/A time=00:00:13.28 bitrate=N/A    frame=  668 fps=5.3 q=24.8 size=N/A time=00:00:13.36 bitrate=N/A    frame=  671 fps=5.3 q=24.8 size=N/A time=00:00:13.42 bitrate=N/A    frame=  674 fps=5.3 q=24.8 size=N/A time=00:00:13.48 bitrate=N/A    frame=  678 fps=5.3 q=24.8 size=N/A time=00:00:13.56 bitrate=N/A    frame=  681 fps=5.3 q=24.8 size=N/A time=00:00:13.62 bitrate=N/A    frame=  684 fps=5.3 q=24.8 size=N/A time=00:00:13.68 bitrate=N/A    frame=  687 fps=5.3 q=24.8 size=N/A time=00:00:13.74 bitrate=N/A    frame=  690 fps=5.3 q=24.8 size=N/A time=00:00:13.80 bitrate=N/A    frame=  693 fps=5.3 q=24.8 size=N/A time=00:00:13.86 bitrate=N/A    frame=  696 fps=5.3 q=24.8 size=N/A time=00:00:13.92 bitrate=N/A    frame=  699 fps=5.3 q=24.8 size=N/A time=00:00:13.98 bitrate=N/A    frame=  703 fps=5.3 q=24.8 size=N/A time=00:00:14.06 bitrate=N/A    frame=  706 fps=5.3 q=24.8 size=N/A time=00:00:14.12 bitrate=N/A    frame=  709 fps=5.3 q=24.8 size=N/A time=00:00:14.18 bitrate=N/A    frame=  713 fps=5.3 q=24.8 size=N/A time=00:00:14.26 bitrate=N/A    frame=  717 fps=5.3 q=24.8 size=N/A time=00:00:14.34 bitrate=N/A    frame=  721 fps=5.3 q=24.8 size=N/A time=00:00:14.42 bitrate=N/A    frame=  724 fps=5.3 q=24.8 size=N/A time=00:00:14.48 bitrate=N/A    frame=  727 fps=5.3 q=24.8 size=N/A time=00:00:14.54 bitrate=N/A    frame=  730 fps=5.3 q=24.8 size=N/A time=00:00:14.60 bitrate=N/A    frame=  733 fps=5.3 q=24.8 size=N/A time=00:00:14.66 bitrate=N/A    frame=  736 fps=5.3 q=24.8 size=N/A time=00:00:14.72 bitrate=N/A    frame=  739 fps=5.3 q=24.8 size=N/A time=00:00:14.78 bitrate=N/A    frame=  742 fps=5.3 q=24.8 size=N/A time=00:00:14.84 bitrate=N/A    frame=  745 fps=5.3 q=24.8 size=N/A time=00:00:14.90 bitrate=N/A    frame=  748 fps=5.3 q=24.8 size=N/A time=00:00:14.96 bitrate=N/A    frame=  751 fps=5.3 q=24.8 size=N/A time=00:00:15.02 bitrate=N/A    frame=  754 fps=5.3 q=24.8 size=N/A time=00:00:15.08 bitrate=N/A    frame=  757 fps=5.3 q=24.8 size=N/A time=00:00:15.14 bitrate=N/A    frame=  760 fps=5.3 q=24.8 size=N/A time=00:00:15.20 bitrate=N/A    frame=  763 fps=5.3 q=24.8 size=N/A time=00:00:15.26 bitrate=N/A    frame=  766 fps=5.3 q=24.8 size=N/A time=00:00:15.32 bitrate=N/A    frame=  769 fps=5.3 q=24.8 size=N/A time=00:00:15.38 bitrate=N/A    frame=  773 fps=5.3 q=24.8 size=N/A time=00:00:15.46 bitrate=N/A    frame=  776 fps=5.3 q=24.8 size=N/A time=00:00:15.52 bitrate=N/A    frame=  779 fps=5.3 q=24.8 size=N/A time=00:00:15.58 bitrate=N/A    frame=  782 fps=5.3 q=24.8 size=N/A time=00:00:15.64 bitrate=N/A    frame=  786 fps=5.3 q=24.8 size=N/A time=00:00:15.72 bitrate=N/A    frame=  790 fps=5.3 q=24.8 size=N/A time=00:00:15.80 bitrate=N/A    frame=  793 fps=5.3 q=24.8 size=N/A time=00:00:15.86 bitrate=N/A    frame=  796 fps=5.3 q=24.8 size=N/A time=00:00:15.92 bitrate=N/A    frame=  799 fps=5.3 q=24.8 size=N/A time=00:00:15.98 bitrate=N/A    frame=  802 fps=5.3 q=24.8 size=N/A time=00:00:16.04 bitrate=N/A    frame=  805 fps=5.3 q=24.8 size=N/A time=00:00:16.10 bitrate=N/A    frame=  808 fps=5.3 q=24.8 size=N/A time=00:00:16.16 bitrate=N/A    frame=  811 fps=5.3 q=24.8 size=N/A time=00:00:16.22 bitrate=N/A    frame=  815 fps=5.3 q=24.8 size=N/A time=00:00:16.30 bitrate=N/A    frame=  818 fps=5.3 q=24.8 size=N/A time=00:00:16.36 bitrate=N/A    frame=  821 fps=5.3 q=24.8 size=N/A time=00:00:16.42 bitrate=N/A    frame=  824 fps=5.3 q=24.8 size=N/A time=00:00:16.48 bitrate=N/A    frame=  827 fps=5.3 q=24.8 size=N/A time=00:00:16.54 bitrate=N/A    frame=  830 fps=5.3 q=24.8 size=N/A time=00:00:16.60 bitrate=N/A    frame=  834 fps=5.3 q=24.8 size=N/A time=00:00:16.68 bitrate=N/A    frame=  838 fps=5.3 q=24.8 size=N/A time=00:00:16.76 bitrate=N/A    frame=  841 fps=5.3 q=24.8 size=N/A time=00:00:16.82 bitrate=N/A    frame=  844 fps=5.3 q=24.8 size=N/A time=00:00:16.88 bitrate=N/A    frame=  848 fps=5.3 q=24.8 size=N/A time=00:00:16.96 bitrate=N/A    frame=  852 fps=5.3 q=24.8 size=N/A time=00:00:17.04 bitrate=N/A    frame=  855 fps=5.3 q=24.8 size=N/A time=00:00:17.10 bitrate=N/A    frame=  859 fps=5.3 q=24.8 size=N/A time=00:00:17.18 bitrate=N/A    frame=  861 fps=5.3 q=24.8 size=N/A time=00:00:17.22 bitrate=N/A    frame=  864 fps=5.3 q=24.8 size=N/A time=00:00:17.28 bitrate=N/A    frame=  867 fps=5.3 q=24.8 size=N/A time=00:00:17.34 bitrate=N/A    frame=  870 fps=5.3 q=24.8 size=N/A time=00:00:17.40 bitrate=N/A    frame=  873 fps=5.3 q=24.8 size=N/A time=00:00:17.46 bitrate=N/A    frame=  877 fps=5.3 q=24.8 size=N/A time=00:00:17.54 bitrate=N/A    frame=  880 fps=5.3 q=24.8 size=N/A time=00:00:17.60 bitrate=N/A    frame=  883 fps=5.3 q=24.8 size=N/A time=00:00:17.66 bitrate=N/A    frame=  887 fps=5.3 q=24.8 size=N/A time=00:00:17.74 bitrate=N/A    frame=  890 fps=5.3 q=24.8 size=N/A time=00:00:17.80 bitrate=N/A    frame=  893 fps=5.3 q=24.8 size=N/A time=00:00:17.86 bitrate=N/A    frame=  896 fps=5.3 q=24.8 size=N/A time=00:00:17.92 bitrate=N/A    frame=  899 fps=5.3 q=24.8 size=N/A time=00:00:17.98 bitrate=N/A    frame=  902 fps=5.3 q=24.8 size=N/A time=00:00:18.04 bitrate=N/A    frame=  905 fps=5.3 q=24.8 size=N/A time=00:00:18.10 bitrate=N/A    frame=  908 fps=5.3 q=24.8 size=N/A time=00:00:18.16 bitrate=N/A    frame=  912 fps=5.3 q=24.8 size=N/A time=00:00:18.24 bitrate=N/A    frame=  915 fps=5.3 q=24.8 size=N/A time=00:00:18.30 bitrate=N/A    frame=  918 fps=5.3 q=24.8 size=N/A time=00:00:18.36 bitrate=N/A    frame=  921 fps=5.3 q=24.8 size=N/A time=00:00:18.42 bitrate=N/A    frame=  924 fps=5.3 q=24.8 size=N/A time=00:00:18.48 bitrate=N/A    frame=  927 fps=5.3 q=24.8 size=N/A time=00:00:18.54 bitrate=N/A    frame=  930 fps=5.3 q=24.8 size=N/A time=00:00:18.60 bitrate=N/A    frame=  933 fps=5.3 q=24.8 size=N/A time=00:00:18.66 bitrate=N/A    frame=  936 fps=5.3 q=24.8 size=N/A time=00:00:18.72 bitrate=N/A    frame=  940 fps=5.3 q=24.8 size=N/A time=00:00:18.80 bitrate=N/A    frame=  943 fps=5.3 q=24.8 size=N/A time=00:00:18.86 bitrate=N/A    frame=  946 fps=5.3 q=24.8 size=N/A time=00:00:18.92 bitrate=N/A    frame=  949 fps=5.3 q=24.8 size=N/A time=00:00:18.98 bitrate=N/A    frame=  952 fps=5.3 q=24.8 size=N/A time=00:00:19.04 bitrate=N/A    frame=  955 fps=5.3 q=24.8 size=N/A time=00:00:19.10 bitrate=N/A    frame=  959 fps=5.3 q=24.8 size=N/A time=00:00:19.18 bitrate=N/A    frame=  962 fps=5.3 q=24.8 size=N/A time=00:00:19.24 bitrate=N/A    frame=  966 fps=5.3 q=24.8 size=N/A time=00:00:19.32 bitrate=N/A    frame=  970 fps=5.3 q=24.8 size=N/A time=00:00:19.40 bitrate=N/A    frame=  973 fps=5.3 q=24.8 size=N/A time=00:00:19.46 bitrate=N/A    frame=  976 fps=5.3 q=24.8 size=N/A time=00:00:19.52 bitrate=N/A    frame=  979 fps=5.3 q=24.8 size=N/A time=00:00:19.58 bitrate=N/A    frame=  982 fps=5.3 q=24.8 size=N/A time=00:00:19.64 bitrate=N/A    frame=  985 fps=5.3 q=24.8 size=N/A time=00:00:19.70 bitrate=N/A    frame=  988 fps=5.3 q=24.8 size=N/A time=00:00:19.76 bitrate=N/A    frame=  991 fps=5.3 q=24.8 size=N/A time=00:00:19.82 bitrate=N/A    frame=  994 fps=5.3 q=24.8 size=N/A time=00:00:19.88 bitrate=N/A    frame=  997 fps=5.3 q=24.8 size=N/A time=00:00:19.94 bitrate=N/A    frame= 1000 fps=5.3 q=24.8 size=N/A time=00:00:20.00 bitrate=N/A    frame= 1003 fps=5.3 q=24.8 size=N/A time=00:00:20.06 bitrate=N/A    frame= 1006 fps=5.3 q=24.8 size=N/A time=00:00:20.12 bitrate=N/A    frame= 1009 fps=5.3 q=24.8 size=N/A time=00:00:20.18 bitrate=N/A    frame= 1012 fps=5.3 q=24.8 size=N/A time=00:00:20.24 bitrate=N/A    frame= 1015 fps=5.3 q=24.8 size=N/A time=00:00:20.30 bitrate=N/A    frame= 1018 fps=5.3 q=24.8 size=N/A time=00:00:20.36 bitrate=N/A    frame= 1021 fps=5.2 q=24.8 size=N/A time=00:00:20.42 bitrate=N/A    frame= 1024 fps=5.2 q=24.8 size=N/A time=00:00:20.48 bitrate=N/A    frame= 1027 fps=5.2 q=24.8 size=N/A time=00:00:20.54 bitrate=N/A    frame= 1030 fps=5.2 q=24.8 size=N/A time=00:00:20.60 bitrate=N/A    frame= 1034 fps=5.3 q=24.8 size=N/A time=00:00:20.68 bitrate=N/A    frame= 1037 fps=5.3 q=24.8 size=N/A time=00:00:20.74 bitrate=N/A    frame= 1041 fps=5.3 q=24.8 size=N/A time=00:00:20.82 bitrate=N/A    frame= 1044 fps=5.3 q=24.8 size=N/A time=00:00:20.88 bitrate=N/A    frame= 1047 fps=5.3 q=24.8 size=N/A time=00:00:20.94 bitrate=N/A    frame= 1050 fps=5.2 q=24.8 size=N/A time=00:00:21.00 bitrate=N/A    frame= 1052 fps=5.2 q=24.8 size=N/A time=00:00:21.04 bitrate=N/A    frame= 1055 fps=5.2 q=24.8 size=N/A time=00:00:21.10 bitrate=N/A    frame= 1057 fps=5.2 q=24.8 size=N/A time=00:00:21.14 bitrate=N/A    frame= 1060 fps=5.2 q=24.8 size=N/A time=00:00:21.20 bitrate=N/A    frame= 1063 fps=5.2 q=24.8 size=N/A time=00:00:21.26 bitrate=N/A    frame= 1066 fps=5.2 q=24.8 size=N/A time=00:00:21.32 bitrate=N/A    frame= 1068 fps=5.2 q=24.8 size=N/A time=00:00:21.36 bitrate=N/A    frame= 1071 fps=5.2 q=24.8 size=N/A time=00:00:21.42 bitrate=N/A    frame= 1073 fps=5.2 q=24.8 size=N/A time=00:00:21.46 bitrate=N/A    frame= 1076 fps=5.2 q=24.8 size=N/A time=00:00:21.52 bitrate=N/A    frame= 1079 fps=5.2 q=24.8 size=N/A time=00:00:21.58 bitrate=N/A    frame= 1082 fps=5.2 q=24.8 size=N/A time=00:00:21.64 bitrate=N/A    frame= 1086 fps=5.2 q=24.8 size=N/A time=00:00:21.72 bitrate=N/A    frame= 1089 fps=5.2 q=24.8 size=N/A time=00:00:21.78 bitrate=N/A    frame= 1092 fps=5.2 q=24.8 size=N/A time=00:00:21.84 bitrate=N/A    frame= 1095 fps=5.2 q=24.8 size=N/A time=00:00:21.90 bitrate=N/A    frame= 1098 fps=5.2 q=24.8 size=N/A time=00:00:21.96 bitrate=N/A    frame= 1101 fps=5.2 q=24.8 size=N/A time=00:00:22.02 bitrate=N/A    frame= 1105 fps=5.2 q=24.8 size=N/A time=00:00:22.10 bitrate=N/A    frame= 1108 fps=5.2 q=24.8 size=N/A time=00:00:22.16 bitrate=N/A    frame= 1111 fps=5.2 q=24.8 size=N/A time=00:00:22.22 bitrate=N/A    frame= 1114 fps=5.2 q=24.8 size=N/A time=00:00:22.28 bitrate=N/A    frame= 1117 fps=5.2 q=24.8 size=N/A time=00:00:22.34 bitrate=N/A    frame= 1119 fps=5.2 q=24.8 size=N/A time=00:00:22.38 bitrate=N/A    frame= 1122 fps=5.2 q=24.8 size=N/A time=00:00:22.44 bitrate=N/A    frame= 1125 fps=5.2 q=24.8 size=N/A time=00:00:22.50 bitrate=N/A    frame= 1128 fps=5.2 q=24.8 size=N/A time=00:00:22.56 bitrate=N/A    frame= 1131 fps=5.2 q=24.8 size=N/A time=00:00:22.62 bitrate=N/A    frame= 1134 fps=5.2 q=24.8 size=N/A time=00:00:22.68 bitrate=N/A    frame= 1137 fps=5.2 q=24.8 size=N/A time=00:00:22.74 bitrate=N/A    frame= 1140 fps=5.2 q=24.8 size=N/A time=00:00:22.80 bitrate=N/A    frame= 1143 fps=5.2 q=24.8 size=N/A time=00:00:22.86 bitrate=N/A    frame= 1146 fps=5.2 q=24.8 size=N/A time=00:00:22.92 bitrate=N/A    frame= 1149 fps=5.2 q=24.8 size=N/A time=00:00:22.98 bitrate=N/A    frame= 1152 fps=5.2 q=24.8 size=N/A time=00:00:23.04 bitrate=N/A    frame= 1155 fps=5.2 q=24.8 size=N/A time=00:00:23.10 bitrate=N/A    frame= 1158 fps=5.2 q=24.8 size=N/A time=00:00:23.16 bitrate=N/A    frame= 1161 fps=5.2 q=24.8 size=N/A time=00:00:23.22 bitrate=N/A    frame= 1164 fps=5.2 q=24.8 size=N/A time=00:00:23.28 bitrate=N/A    frame= 1166 fps=5.2 q=24.8 size=N/A time=00:00:23.32 bitrate=N/A    frame= 1168 fps=5.2 q=24.8 size=N/A time=00:00:23.36 bitrate=N/A    frame= 1171 fps=5.2 q=24.8 size=N/A time=00:00:23.42 bitrate=N/A    frame= 1174 fps=5.2 q=24.8 size=N/A time=00:00:23.48 bitrate=N/A    frame= 1177 fps=5.2 q=24.8 size=N/A time=00:00:23.54 bitrate=N/A    frame= 1180 fps=5.2 q=24.8 size=N/A time=00:00:23.60 bitrate=N/A    frame= 1184 fps=5.2 q=24.8 size=N/A time=00:00:23.68 bitrate=N/A    frame= 1187 fps=5.2 q=24.8 size=N/A time=00:00:23.74 bitrate=N/A    frame= 1190 fps=5.2 q=24.8 size=N/A time=00:00:23.80 bitrate=N/A    frame= 1192 fps=5.2 q=24.8 size=N/A time=00:00:23.84 bitrate=N/A    frame= 1195 fps=5.2 q=24.8 size=N/A time=00:00:23.90 bitrate=N/A    frame= 1198 fps=5.2 q=24.8 size=N/A time=00:00:23.96 bitrate=N/A    frame= 1200 fps=5.2 q=24.8 size=N/A time=00:00:24.00 bitrate=N/A    frame= 1202 fps=5.2 q=24.8 size=N/A time=00:00:24.04 bitrate=N/A    frame= 1205 fps=5.2 q=24.8 size=N/A time=00:00:24.10 bitrate=N/A    frame= 1208 fps=5.2 q=24.8 size=N/A time=00:00:24.16 bitrate=N/A    frame= 1210 fps=5.2 q=24.8 size=N/A time=00:00:24.20 bitrate=N/A    frame= 1213 fps=5.2 q=24.8 size=N/A time=00:00:24.26 bitrate=N/A    frame= 1216 fps=5.2 q=24.8 size=N/A time=00:00:24.32 bitrate=N/A    frame= 1219 fps=5.2 q=24.8 size=N/A time=00:00:24.38 bitrate=N/A    frame= 1221 fps=5.2 q=24.8 size=N/A time=00:00:24.42 bitrate=N/A    frame= 1223 fps=5.2 q=24.8 size=N/A time=00:00:24.46 bitrate=N/A    frame= 1226 fps=5.2 q=24.8 size=N/A time=00:00:24.52 bitrate=N/A    frame= 1229 fps=5.2 q=24.8 size=N/A time=00:00:24.58 bitrate=N/A    frame= 1232 fps=5.2 q=24.8 size=N/A time=00:00:24.64 bitrate=N/A    frame= 1235 fps=5.2 q=24.8 size=N/A time=00:00:24.70 bitrate=N/A    frame= 1238 fps=5.2 q=24.8 size=N/A time=00:00:24.76 bitrate=N/A    frame= 1240 fps=5.2 q=24.8 size=N/A time=00:00:24.80 bitrate=N/A    frame= 1242 fps=5.2 q=24.8 size=N/A time=00:00:24.84 bitrate=N/A    frame= 1245 fps=5.2 q=24.8 size=N/A time=00:00:24.90 bitrate=N/A    frame= 1247 fps=5.1 q=24.8 size=N/A time=00:00:24.94 bitrate=N/A    frame= 1249 fps=5.1 q=24.8 size=N/A time=00:00:24.98 bitrate=N/A    frame= 1252 fps=5.1 q=24.8 size=N/A time=00:00:25.04 bitrate=N/A    frame= 1255 fps=5.1 q=24.8 size=N/A time=00:00:25.10 bitrate=N/A    frame= 1258 fps=5.1 q=24.8 size=N/A time=00:00:25.16 bitrate=N/A    frame= 1258 fps=5.1 q=24.8 Lsize=N/A time=00:00:25.16 bitrate=N/A    
video:1228232kB audio:0kB subtitle:0kB other streams:0kB global headers:0kB muxing overhead: unknown
+ turkic load DJI_0055_30m_vadvalto_buzaban_homokmegy_20180603_napos_kalaszos_T4 /home/horvathandras/vatic/vatic/videos/DJI_0055_30m_vadvalto_buzaban_homokmegy_20180603_napos_kalaszos_T4 $'Pozit\303\255vROI' $'Negat\303\255vROI' $'T\303\272r\303\241s' '~Friss' '~1-2Hetes' '~Régebbi' '~Egyéb1' '~Egyéb2' '~Egyéb3' $'R\303\241g\303\241s' '~Friss' '~1-2Hetes' '~Régebbi' '~Egyéb1' '~Egyéb2' '~Egyéb3' $'T\303\266r\303\251s' '~Friss' '~1-2Hetes' '~Régebbi' '~Egyéb1' '~Egyéb2' '~Egyéb3' $'Tapos\303\241s' '~Friss' '~1-2Hetes' '~Régebbi' '~Egyéb1' '~Egyéb2' '~Egyéb3' $'Eg\303\251szs\303\251gesN\303\266v\303\251ny' $'Egy\303\251b1' $'Egy\303\251b2' $'Egy\303\251b3' $'Egy\303\251b4' $'Egy\303\251b5' Bizonytalan $'M\305\261vel\305\221\303\272t' $'Gktapos\303\241s' $'Vet\305\221hiba' $'Sz\303\251ld\303\266nt\303\251s' $'J\303\251gk\303\241r' $'Belv\303\255z' $'Asz\303\241ly' $'Er\303\263zi\303\263' $'Egyszik\305\261Gyom' $'K\303\251tszik\305\261Gyom' $'Egy\303\251bN\303\266vv\303\251delmiPR' --offline --title '$filenameNoDot Video' --length 1000 --description 'vatic annotation'
+ turkic publish --offline
+ mkdir /home/horvathandras/vatic/vatic/public/videothumbnails/DJI_0055_30m_vadvalto_buzaban_homokmegy_20180603_napos_kalaszos_T4
+ cp /home/horvathandras/vatic/vatic/videos/DJI_0055_30m_vadvalto_buzaban_homokmegy_20180603_napos_kalaszos_T4/0/0/31.jpg /home/horvathandras/vatic/vatic/public/videothumbnails/DJI_0055_30m_vadvalto_buzaban_homokmegy_20180603_napos_kalaszos_T4/thumb.jpg
